mtllib noorabad_rooftop_boundary.mtl
o floor
usemtl floor
v -8.0000 -4.0000 -0.1700
v 8.0000 -4.0000 -0.1700
v 8.0000 4.0000 -0.1700
v -8.0000 4.0000 -0.1700
v -8.0000 -4.0000 0.0100
v 8.0000 -4.0000 0.0100
v 8.0000 4.0000 0.0100
v -8.0000 4.0000 0.0100
f 1 2 3 4
f 5 8 7 6
f 1 5 6 2
f 2 6 7 3
f 3 7 8 4
f 4 8 5 1
o left_wall
usemtl wall
v -8.0300 -4.0000 0.0000
v -7.8700 -4.0000 0.0000
v -7.8700 4.0000 0.0000
v -8.0300 4.0000 0.0000
v -8.0300 -4.0000 2.6000
v -7.8700 -4.0000 2.6000
v -7.8700 4.0000 2.6000
v -8.0300 4.0000 2.6000
f 9 10 11 12
f 13 16 15 14
f 9 13 14 10
f 10 14 15 11
f 11 15 16 12
f 12 16 13 9
o right_wall
usemtl wall
v 7.8700 -4.0000 0.0000
v 8.0300 -4.0000 0.0000
v 8.0300 4.0000 0.0000
v 7.8700 4.0000 0.0000
v 7.8700 -4.0000 2.6000
v 8.0300 -4.0000 2.6000
v 8.0300 4.0000 2.6000
v 7.8700 4.0000 2.6000
f 17 18 19 20
f 21 24 23 22
f 17 21 22 18
f 18 22 23 19
f 19 23 24 20
f 20 24 21 17
o back_rail
usemtl dark
v -8.0000 -4.1700 0.0700
v 8.0000 -4.1700 0.0700
v 8.0000 -4.0300 0.0700
v -8.0000 -4.0300 0.0700
v -8.0000 -4.1700 1.1700
v 8.0000 -4.1700 1.1700
v 8.0000 -4.0300 1.1700
v -8.0000 -4.0300 1.1700
f 25 26 27 28
f 29 32 31 30
f 25 29 30 26
f 26 30 31 27
f 27 31 32 28
f 28 32 29 25
o front_rail
usemtl dark
v -8.0000 4.0300 0.0700
v 8.0000 4.0300 0.0700
v 8.0000 4.1700 0.0700
v -8.0000 4.1700 0.0700
v -8.0000 4.0300 1.1700
v 8.0000 4.0300 1.1700
v 8.0000 4.1700 1.1700
v -8.0000 4.1700 1.1700
f 33 34 35 36
f 37 40 39 38
f 33 37 38 34
f 34 38 39 35
f 35 39 40 36
f 36 40 37 33
